<?xml version="1.0" encoding="utf-8"?>
<!-- Generator: Adobe Illustrator 25.0.1, SVG Export Plug-In . SVG Version: 6.00 Build 0)  -->
<svg version="1.0" id="Layer_1" xmlns="http://www.w3.org/2000/svg" xmlns:xlink="http://www.w3.org/1999/xlink" x="0px" y="0px"
	 viewBox="0 0 180 30" style="enable-background:new 0 0 180 30;" xml:space="preserve">
<circle style="fill:#FCB424;" cx="158.8" cy="14.8" r="13"/>
<g>
	<path style="fill:#2C53B1;" d="M14.4,19l-0.1,0.9c0,1.1,0.3,2.1,1,2.8c0.6,0.8,1.5,1.1,2.6,1.1c0.8,0,1.6-0.3,2.3-0.8
		c0.7-0.6,1-1.2,1-2l4.9,0.4c0,0.5-0.3,1.2-0.9,2.2c-0.6,1-1.5,2-2.8,2.8c-1.2,0.8-2.8,1.3-4.7,1.3c-1.8,0-3.4-0.4-4.8-1.2
		c-1.4-0.8-2.4-1.9-3.2-3.3c-0.7-1.4-1.1-3-1.1-4.8c0-1.8,0.4-3.5,1-5c0.7-1.5,1.7-2.6,3.1-3.5s2.9-1.3,4.8-1.3
		c1.3,0,2.6,0.3,3.8,0.8c1.2,0.6,2.2,1.4,2.9,2.4c1.2,1.8,1.8,4.2,1.8,7.2H14.4z M20.9,15.8c-0.1-2.6-1.2-3.8-3.1-3.8
		c-2.1,0-3.2,1.3-3.4,3.8H20.9z"/>
	<path style="fill:#2C53B1;" d="M35.2,27.2h-5.8V2.5h9.3c1.6,0,2.8,0.1,3.8,0.2c1,0.1,1.9,0.5,2.9,1.1c2.1,1.5,3.2,3.6,3.2,6.2
		c0,2.7-0.9,4.8-2.6,6.3c-1,0.8-2,1.2-3,1.4c-1,0.2-2.4,0.3-4.1,0.3h-3.7V27.2z M38.5,13.5c0.9,0,1.5-0.1,2.1-0.2s1-0.4,1.4-0.9
		c0.5-0.5,0.8-1.3,0.8-2.2c0-1.1-0.4-2-1.2-2.6C41,7.2,40,7,38.5,7h-3.2v6.5H38.5z"/>
	<path style="fill:#2C53B1;" d="M68.2,18.2c0,2.7-0.8,4.9-2.4,6.7s-3.8,2.7-6.4,2.7c-1.8,0-3.3-0.4-4.7-1.3c-1.3-0.8-2.3-2-3-3.4
		c-0.7-1.4-1-3.1-1-4.9c0-1.8,0.3-3.4,1-4.9s1.7-2.6,3-3.4C56,9,57.5,8.6,59.3,8.6c1.8,0,3.4,0.4,4.8,1.3c1.3,0.8,2.3,2,3,3.5
		C67.8,14.7,68.2,16.4,68.2,18.2z M56.4,17.5c0,1.8,0.2,3.3,0.5,4.6c0.3,1.3,1.2,2,2.5,2c2.1,0,3.2-2,3.2-5.9c0-1.8-0.2-3.3-0.6-4.5
		c-0.4-1.1-1.3-1.7-2.6-1.7C57.4,12.1,56.4,13.9,56.4,17.5z"/>
	<path style="fill:#2C53B1;" d="M76.2,8.9v3.4h0.1c0.7-2.5,2-3.8,3.9-3.8l0.9,0.1v5.3c-1.8,0-3,0.6-3.6,1.7
		c-0.6,1.1-0.9,2.7-0.9,4.6v7h-5.3V8.9H76.2z"/>
	<path style="fill:#2C53B1;" d="M81.6,13.1V8.8h3.2l0.4-5.4l4.6-0.3v5.7h4v4.2h-4v7.3c0,0.8,0,1.4,0.1,1.8c0.1,0.4,0.3,0.7,0.7,0.8
		c0.4,0.2,1,0.3,1.8,0.3l1.7-0.1v4l-0.4,0.1c-1.7,0.2-2.7,0.3-2.9,0.3c-2.2,0-3.8-0.4-4.8-1.1c-0.7-0.6-1.1-1.2-1.2-2.1
		c-0.2-0.8-0.3-1.9-0.3-3.2v-8.1H81.6z"/>
	<path style="fill:#2C53B1;" d="M102.9,27.2h-5.3V13.5h-2.1V9.4h2.1c0-1.1,0.1-2.1,0.2-2.8c0.1-0.8,0.3-1.4,0.7-2
		c1-1.6,3-2.4,5.7-2.4l2.5,0.2v4.1l-1.8-0.1c-0.8,0-1.4,0.2-1.6,0.6c-0.2,0.4-0.3,1.1-0.3,2v0.4h3.3v4.1h-3.3V27.2z"/>
	<path style="fill:#2C53B1;" d="M124.5,18.2c0,2.7-0.8,4.9-2.4,6.7s-3.8,2.7-6.4,2.7c-1.8,0-3.3-0.4-4.7-1.3c-1.3-0.8-2.3-2-3-3.4
		c-0.7-1.4-1-3.1-1-4.9c0-1.8,0.3-3.4,1-4.9s1.7-2.6,3-3.4c1.3-0.8,2.9-1.2,4.7-1.2c1.8,0,3.4,0.4,4.8,1.3c1.3,0.8,2.3,2,3,3.5
		C124.1,14.7,124.5,16.4,124.5,18.2z M112.7,17.5c0,1.8,0.2,3.3,0.5,4.6c0.3,1.3,1.2,2,2.5,2c2.1,0,3.2-2,3.2-5.9
		c0-1.8-0.2-3.3-0.6-4.5c-0.4-1.1-1.3-1.7-2.6-1.7C113.7,12.1,112.7,13.9,112.7,17.5z"/>
	<path style="fill:#2C53B1;" d="M127.5,2.5h5.3v24.8h-5.3V2.5z"/>
	<path style="fill:#2C53B1;" d="M142.1,7.2h-5.3V2.1h5.3V7.2z M142.1,27.2h-5.3V8.9h5.3V27.2z"/>
</g>
</svg>
