<svg height="476pt" viewBox="-10 0 476 476.91157" width="476pt" xmlns="http://www.w3.org/2000/svg"><path d="m16.457031 228.910156h28.199219c4.417969 0 8 3.582032 8 8v224c0 4.417969 3.582031 8 8 8h112c4.417969 0 8-3.582031 8-8v-128c0-4.417968 3.582031-8 8-8h80c4.417969 0 8 3.582032 8 8v128c0 4.417969 3.582031 8 8 8h112c4.417969 0 8-3.582031 8-8v-224c0-4.417968 3.582031-8 8-8h28.199219c3.269531.019532 6.21875-1.953125 7.449219-4.980468 1.234374-3.027344.5-6.5-1.847657-8.769532l-212.199219-204.886718c-3.101562-3-8.019531-3-11.121093 0l-212.242188 204.886718c-2.34375 2.265625-3.078125 5.726563-1.855469 8.75 1.222657 3.023438 4.15625 5 7.417969 5zm0 0" fill="#ffffff"/><path d="m396.65625 476.910156h-112c-8.835938 0-16-7.160156-16-16v-128h-80v128c0 8.839844-7.164062 16-16 16h-112c-8.835938 0-16-7.160156-16-16v-224h-28.199219c-6.523437 0-12.394531-3.957031-14.835937-10.007812-2.445313-6.046875-.96875-12.972656 3.722656-17.503906l212.199219-204.878907c6.183593-6.027343 16.042969-6.027343 22.226562 0l212.207031 204.886719c4.6875 4.535156 6.15625 11.457031 3.710938 17.503906-2.441406 6.042969-8.3125 10-14.832031 10h-28.199219v224c0 8.839844-7.164062 16-16 16zm-208-160h80c8.835938 0 16 7.164063 16 16v128h112v-224c0-8.835937 7.164062-16 16-16h28.28125l-212.28125-204.878906-212.199219 204.878906h28.199219c8.835938 0 16 7.164063 16 16v224h112v-128c0-8.835937 7.164062-16 16-16zm0 0" fill="#bfbfbf"/></svg>